<svg id="logo-tutto-scuola" xmlns="http://www.w3.org/2000/svg" viewBox="0 0 440 90"><style>.st0{fill:#999999;} .st1{fill:#7EC8E9;} .st2{fill:#1A4E65;} .st3{fill:#37AFE5;}</style><path id="slogan" class="st0" d="M15.1 75.2v-2.9c0-.5-.1-.8-.2-1-.1-.2-.4-.3-.9-.3h-.3v-1.5h3.6v11.1c0 .5.1.8.2 1 .1.2.4.3.9.3h.6v1.5h-4v-1.6c-.3.6-.6 1.1-.9 1.3-.5.4-1.1.6-1.7.6-1.1 0-1.9-.5-2.4-1.4-.6-.9-.9-2.2-.9-3.9 0-1.6.3-2.8.9-3.8.6-.9 1.4-1.4 2.6-1.4.7 0 1.3.2 1.8.6.1.4.4.8.7 1.4zm-1.8 0c-.6 0-1 .3-1.3.8-.3.6-.4 1.4-.4 2.5 0 1.2.1 2 .4 2.6.3.6.7.8 1.3.8.6 0 1-.3 1.3-.8.2-.3.3-.7.4-1 .1-.5.1-1.1.1-1.7 0-.9-.1-1.6-.2-2-.3-.7-.8-1.2-1.6-1.2zm11.7 7c-.6.6-1 1-1.5 1.2-.4.2-.9.3-1.4.3-.7 0-1.2-.2-1.7-.5-.3-.2-.5-.6-.7-1-.2-.4-.2-.8-.2-1.3 0-.9.3-1.6.9-2.1.5-.4 1.3-.7 2.5-1 .8-.2 1.3-.4 1.5-.7.3-.3.4-.7.4-1.1 0-.6-.2-1-.6-1.3-.3-.2-.7-.3-1.1-.3-.3 0-.5 0-.8.1-.2.1-.4.2-.6.5.3 0 .6.2.7.4.2.2.3.5.3.8 0 .4-.1.7-.4.9-.3.3-.6.4-1 .4-.3 0-.6-.1-.9-.3-.2-.3-.4-.7-.4-1.2 0-.3.1-.6.2-.9.1-.3.3-.6.5-.8.7-.6 1.6-.9 2.9-.9 1.2 0 2.1.3 2.8.9.3.3.5.7.6 1.2 0 .3.1.8.1 1.5v4c0 .6.2 1 .6 1 .2 0 .4-.1.5-.3.1-.1.1-.4.1-.7v-1.1h.9v1c0 .8-.1 1.3-.2 1.7-.3.9-.9 1.3-1.9 1.3-.6 0-1-.1-1.3-.4-.4-.4-.6-.7-.8-1.3zm-.2-3.8c-.6.3-.9.5-1.1.6-.5.2-.8.4-1 .5-.2.1-.3.2-.4.4-.2.3-.3.6-.3.9 0 .3.1.6.3.8.2.2.4.3.8.3s.8-.1 1.2-.4c.4-.3.6-.8.6-1.6v-1.5zm15.1 3.4c-.3.8-.7 1.3-1 1.5-.4.3-1 .5-1.6.5-1.1 0-2-.5-2.6-1.4-.6-.9-.9-2.2-.9-3.7 0-1.6.3-2.9.9-3.9.6-1 1.4-1.4 2.4-1.4.8 0 1.4.3 1.9.9.2.2.5.6.8 1.1v-1.6h3.7v1.5h-.4c-.4 0-.7.1-.8.3-.1.1-.2.5-.2 1v8.7c0 .5.1.8.2 1 .1.2.4.3.8.3h.4v1.5h-5.3v-1.5h.4c.6 0 .9-.1 1-.3.1-.1.2-.5.2-1v-3.5zM38 75.1c-.6 0-1 .3-1.3.9-.3.6-.4 1.4-.4 2.6 0 1 .1 1.8.4 2.5.3.6.7.9 1.4.9.6 0 1-.2 1.3-.7.2-.3.3-.7.4-1.1.1-.4.1-.9.1-1.5 0-1-.1-1.7-.2-2.2-.4-.9-.9-1.4-1.7-1.4zm9.7-1.5v6.5c0 .5 0 .8.1 1 .2.6.6.9 1.2.9s1.1-.2 1.4-.7c.4-.5.6-1.2.6-1.9v-2.9c0-.5 0-.8-.1-1-.1-.2-.3-.3-.7-.3h-.4v-1.5h3.5v7c0 .5.1.8.2 1 .1.2.4.3.8.3h.6v1.5h-4v-1.6c-.5.7-.9 1.2-1.3 1.4-.5.3-1 .5-1.6.5-.8 0-1.5-.3-2-.8-.2-.3-.4-.7-.5-1.1-.1-.5-.1-1-.1-1.6v-3.7c0-.5 0-.8-.1-1-.1-.2-.4-.3-.7-.3h-.3v-1.5h3.4zM61 82.2c-.6.6-1 1-1.5 1.2-.4.2-.9.3-1.4.3-.7 0-1.2-.2-1.7-.5-.3-.2-.5-.6-.7-1-.2-.4-.2-.8-.2-1.3 0-.9.3-1.6.9-2.1.5-.4 1.3-.7 2.5-1 .8-.2 1.3-.4 1.5-.7.3-.3.4-.7.4-1.1 0-.6-.2-1-.6-1.3-.3-.2-.7-.3-1.1-.3-.3 0-.5 0-.8.1-.2.1-.4.2-.6.5.3 0 .6.2.7.4.2.2.3.5.3.8 0 .4-.1.7-.4.9-.3.3-.6.4-1 .4-.3 0-.6-.1-.9-.3-.3-.3-.5-.7-.5-1.2 0-.3.1-.6.2-.9.1-.3.3-.6.5-.8.7-.6 1.6-.9 2.9-.9 1.2 0 2.1.3 2.8.9.3.3.5.7.6 1.2 0 .3.1.8.1 1.5v4c0 .6.2 1 .6 1 .2 0 .4-.1.5-.3.1-.1.1-.4.1-.7v-1.1h.8v1c0 .8-.1 1.3-.2 1.7-.3.9-.9 1.3-1.9 1.3-.6 0-1-.1-1.3-.4-.2-.4-.4-.7-.6-1.3zm-.2-3.8c-.6.3-.9.5-1.1.6-.5.2-.8.4-1 .5-.2.1-.3.2-.4.4-.2.3-.3.6-.3.9 0 .3.1.6.3.8.2.2.4.3.8.3s.8-.1 1.2-.4c.4-.3.6-.8.6-1.6v-1.5zm8.5-3.5c.3-.5.6-.9.9-1.1.4-.3.8-.4 1.3-.4s.9.1 1.2.4c.2.2.4.5.6.9.1.3.1.6.1.9 0 .5-.1 1-.4 1.3-.3.4-.6.6-1.1.6-.4 0-.7-.2-.9-.5-.2-.2-.3-.5-.3-.9 0-.3.1-.6.2-.8.1-.2.4-.4.7-.5-.2-.1-.4-.2-.5-.2-.5 0-.9.3-1.3.8-.2.3-.4.7-.4 1.2-.1.3-.1.9-.1 1.6v2.5c0 .5.1.8.2 1 .1.2.4.3.8.3h.7v1.5h-5.4V82h.5c.4 0 .7-.1.8-.3.1-.1.2-.5.2-1v-4.2c0-.5-.1-.8-.2-1-.1-.2-.4-.3-.8-.3h-.5v-1.5h3.7v1.2zm10.1 7.3c-.6.6-1 1-1.5 1.2-.4.2-.9.3-1.4.3-.7 0-1.2-.2-1.7-.5-.3-.2-.5-.6-.7-1-.2-.4-.2-.8-.2-1.3 0-.9.3-1.6.9-2.1.5-.4 1.3-.7 2.5-1 .8-.2 1.3-.4 1.5-.7.3-.3.4-.7.4-1.1 0-.6-.2-1-.6-1.3-.3-.2-.7-.3-1.1-.3-.3 0-.5 0-.8.1-.2.1-.4.2-.6.5.3 0 .6.2.7.4.2.2.3.5.3.8 0 .4-.1.7-.4.9-.3.3-.6.4-1 .4-.3 0-.6-.1-.9-.3-.3-.3-.5-.7-.5-1.2 0-.3.1-.6.2-.9.1-.3.3-.6.5-.8.7-.6 1.6-.9 2.9-.9 1.2 0 2.1.3 2.8.9.3.3.5.7.6 1.2 0 .3.1.8.1 1.5v4c0 .6.2 1 .6 1 .2 0 .4-.1.5-.3.1-.1.1-.4.1-.7v-1.1h.9v1c0 .8-.1 1.3-.2 1.7-.3.9-.9 1.3-1.9 1.3-.6 0-1-.1-1.3-.4-.3-.4-.5-.7-.7-1.3zm-.2-3.8c-.6.4-1 .6-1.2.6-.5.2-.8.4-1 .5-.2.1-.3.2-.4.4-.2.3-.3.6-.3.9 0 .3.1.6.3.8.2.2.4.3.8.3s.8-.1 1.2-.4c.4-.3.6-.8.6-1.6v-1.5zm8.6-4.8v1.7c.5-.8 1-1.3 1.3-1.6.4-.3.9-.5 1.5-.5.8 0 1.5.3 1.9.9.2.3.4.7.5 1.1.1.5.1 1 .1 1.6v3.7c0 .5.1.8.2 1 .1.2.4.3.9.3h.4v1.5h-5v-1.5h.4c.4 0 .7-.1.8-.3.1-.1.1-.5.2-1V77c0-.5 0-.8-.1-1-.2-.6-.6-.9-1.2-.9s-1 .2-1.4.7c-.4.5-.6 1.2-.6 2v2.9c0 .5.1.8.2 1 .1.2.4.3.8.3h.3v1.5h-5V82h.5c.4 0 .7-.1.8-.3.1-.1.2-.5.2-1v-4.2c0-.5-.1-.8-.2-1-.1-.2-.4-.3-.8-.3H84v-1.5h3.8zm12.5 5.1h1.1v1.4c0 .8-.1 1.5-.2 1.8-.3 1.2-1.1 1.7-2.3 1.7-1 0-1.6-.4-2.1-1.2-.2-.4-.3-.8-.3-1.2v-6h-1.4v-1.5c.5-.2.9-.3 1.1-.5.4-.3.7-.8.9-1.4.1-.4.2-1 .4-2h1.4v3.8h2.1v1.6h-2.3v5.1c0 .6 0 .9.1 1.1.1.2.3.3.6.3.4 0 .6-.2.7-.7.1-.4.1-.9.1-1.5v-.8zm2.4-3.7v-1c.6-.2.9-.4 1.1-.6.2-.2.3-.7.4-1.3-.3.1-.5.2-.6.2-.3 0-.5-.1-.7-.4-.2-.3-.3-.6-.3-1 0-.6.2-1.1.7-1.5.2-.2.5-.3.7-.3.4 0 .7.2 1 .5.4.4.5 1 .5 1.7 0 1.1-.3 2-1 2.7-.3.3-.6.6-1 .7 0 .1-.4.2-.8.3zm9.4 7.2c-.6.6-1 1-1.5 1.2-.4.2-.9.3-1.4.3-.7 0-1.2-.2-1.7-.5-.3-.2-.5-.6-.7-1-.2-.4-.2-.8-.2-1.3 0-.9.3-1.6.9-2.1.5-.4 1.3-.7 2.5-1 .8-.2 1.3-.4 1.5-.7.3-.3.4-.7.4-1.1 0-.6-.2-1-.6-1.3-.3-.2-.7-.3-1.1-.3-.3 0-.5 0-.8.1-.2.1-.4.2-.6.5.3 0 .6.2.7.4.2.2.3.5.3.8 0 .4-.1.7-.4.9-.3.3-.6.4-1 .4-.3 0-.6-.1-.9-.3-.3-.3-.5-.7-.5-1.2 0-.3.1-.6.2-.9.1-.3.3-.6.5-.8.7-.6 1.6-.9 2.9-.9 1.2 0 2.1.3 2.8.9.3.3.5.7.6 1.2 0 .3.1.8.1 1.5v4c0 .6.2 1 .6 1 .2 0 .4-.1.5-.3.1-.1.1-.4.1-.7v-1.1h.9v1c0 .8-.1 1.3-.2 1.7-.3.9-.9 1.3-1.9 1.3-.6 0-1-.1-1.3-.4-.3-.4-.5-.7-.7-1.3zm-.2-3.8c-.6.3-.9.5-1.1.6-.5.2-.8.4-1 .5-.2.1-.3.2-.4.4-.2.3-.3.6-.3.9 0 .3.1.6.3.8.2.2.4.3.8.3s.8-.1 1.2-.4c.4-.3.6-.8.6-1.6v-1.5zm8.6-4.8v1.7c.5-.8 1-1.3 1.3-1.6.4-.3.9-.5 1.5-.5.8 0 1.5.3 1.9.9.2.3.4.7.5 1.1.1.5.1 1 .1 1.6v3.7c0 .5.1.8.2 1 .1.2.4.3.9.3h.4v1.5h-5v-1.5h.3c.4 0 .7-.1.8-.3.1-.1.1-.5.2-1V77c0-.5 0-.8-.1-1-.2-.6-.6-.9-1.2-.9s-1 .2-1.4.7c-.4.5-.6 1.2-.6 2v2.9c0 .5.1.8.2 1 .1.2.4.3.8.3h.3v1.5h-5V82h.5c.4 0 .7-.1.8-.3.1-.1.2-.5.2-1v-4.2c0-.5-.1-.8-.2-1-.1-.2-.4-.3-.8-.3h-.5v-1.5h3.9zm11.3 0v1.7c.5-.8 1-1.3 1.3-1.6.4-.3.9-.5 1.5-.5.8 0 1.5.3 1.9.9.2.3.4.7.5 1.1.1.5.1 1 .1 1.6v3.7c0 .5.1.8.2 1 .1.2.4.3.9.3h.4v1.5h-5v-1.5h.3c.4 0 .7-.1.8-.3.1-.1.1-.5.2-1V77c0-.5 0-.8-.1-1-.2-.6-.6-.9-1.2-.9s-1 .2-1.4.7c-.4.5-.6 1.2-.6 2v2.9c0 .5.1.8.2 1 .1.2.4.3.8.3h.3v1.5h-5V82h.5c.4 0 .7-.1.8-.3.1-.1.2-.5.2-1v-4.2c0-.5-.1-.8-.2-1-.1-.2-.4-.3-.8-.3h-.4v-1.5h3.8zm11.3 0v7c0 .5.1.8.2 1 .1.2.4.3.8.3h.6v1.5h-5.3v-1.5h.5c.4 0 .7-.1.8-.3.1-.1.2-.4.2-1v-4.2c0-.5-.1-.9-.2-1-.1-.2-.4-.3-.8-.3h-.5v-1.5h3.7zm-1.3-4.1c.3 0 .6.2.8.5.2.3.4.7.4 1.1 0 .4-.1.8-.4 1.1-.2.3-.5.5-.9.5-.3 0-.6-.2-.9-.5-.2-.3-.4-.7-.4-1.1 0-.5.1-.8.4-1.1.4-.3.7-.5 1-.5zm11 .1v11.1c0 .5.1.8.2 1 .1.2.4.3.8.3h.6v1.5h-5.3V82h.5c.4 0 .7-.1.8-.3.1-.1.2-.4.2-1v-8.3c0-.5-.1-.9-.2-1-.1-.2-.4-.3-.8-.3h-.5v-1.5h3.7zm2.5 5.4v-1c.6-.2.9-.4 1.1-.6.2-.2.3-.7.4-1.3-.3.1-.5.2-.6.2-.3 0-.5-.1-.7-.4-.2-.3-.3-.6-.3-1 0-.6.2-1.1.7-1.5.2-.2.5-.3.7-.3.4 0 .7.2 1 .5.4.4.5 1 .5 1.7 0 1.1-.3 2-1 2.7-.3.3-.6.6-1 .7-.1.1-.4.2-.8.3zm7.8-1.4v7c0 .5.1.8.2 1 .1.2.4.3.8.3h.6v1.5h-5.3v-1.5h.5c.4 0 .7-.1.8-.3.1-.1.2-.4.2-1v-4.2c0-.5-.1-.9-.2-1-.1-.2-.4-.3-.8-.3h-.5v-1.5h3.7zm-1.3-4.1c.3 0 .6.2.8.5.2.3.4.7.4 1.1 0 .4-.1.8-.4 1.1-.2.3-.5.5-.9.5-.3 0-.6-.2-.9-.5-.2-.3-.4-.7-.4-1.1 0-.5.1-.8.4-1.1.4-.3.7-.5 1-.5zm7.3 4.1v1.7c.5-.8 1-1.3 1.3-1.6.4-.3.9-.5 1.5-.5.8 0 1.5.3 1.9.9.2.3.4.7.5 1.1.1.5.1 1 .1 1.6v3.7c0 .5.1.8.2 1 .1.2.4.3.9.3h.4v1.5h-5v-1.5h.3c.4 0 .7-.1.8-.3.1-.1.1-.5.2-1V77c0-.5 0-.8-.1-1-.2-.6-.6-.9-1.2-.9s-1 .2-1.4.7c-.4.5-.6 1.2-.6 2v2.9c0 .5.1.8.2 1 .1.2.4.3.8.3h.3v1.5h-5V82h.5c.4 0 .7-.1.8-.3.1-.1.2-.5.2-1v-4.2c0-.5-.1-.8-.2-1-.1-.2-.4-.3-.8-.3h-.5v-1.5h3.9zm9 1.7h-1.5v-1.7h1.5v-.8c0-1.1.2-1.9.5-2.4.3-.4.6-.7 1.1-.9.4-.2.9-.3 1.5-.3.9 0 1.6.3 2.1.8.4.4.5.9.5 1.5 0 .4-.1.7-.2.9-.2.4-.6.5-1 .5-.3 0-.6-.1-.8-.4-.2-.2-.3-.5-.3-.8 0-.5.3-.9.8-1.1-.3-.2-.5-.3-.7-.3-.4 0-.6.1-.8.4-.2.3-.3.8-.3 1.7v1.2h1.8v1.7h-1.8v5.3c0 .5.1.8.2 1 .1.2.4.3.8.3h.7v1.5h-5.4v-1.5h.5c.4 0 .7-.1.8-.3.1-.1.2-.5.2-1v-5.3zm9.3-2c1.3 0 2.3.4 3.2 1.3.9 1 1.4 2.3 1.4 3.9s-.5 2.9-1.4 3.9c-.8.9-1.9 1.3-3.2 1.3-1.3 0-2.4-.4-3.2-1.3-.9-1-1.4-2.3-1.4-3.9 0-1.7.5-3 1.4-3.9.8-.9 1.9-1.3 3.2-1.3zm-.1 1.6c-1.4 0-2.1 1.2-2.1 3.6 0 2.4.7 3.6 2.2 3.6 1.4 0 2.1-1.2 2.1-3.6 0-1.3-.2-2.2-.6-2.8-.3-.5-.9-.8-1.6-.8zm9.2 0c.3-.5.6-.9.9-1.1.4-.3.8-.4 1.3-.4s.9.1 1.2.4c.2.2.4.5.6.9.1.3.1.6.1.9 0 .5-.1 1-.4 1.3-.3.4-.6.6-1.1.6-.4 0-.7-.2-.9-.5-.2-.2-.3-.5-.3-.9 0-.3.1-.6.2-.8.1-.2.4-.4.7-.5-.2-.1-.4-.2-.5-.2-.5 0-.9.3-1.3.8-.2.3-.4.7-.4 1.2-.1.3-.1.9-.1 1.6v2.5c0 .5.1.8.2 1 .1.2.4.3.8.3h.8v1.5h-5.4V82h.5c.4 0 .7-.1.8-.3.1-.1.2-.5.2-1v-4.2c0-.5-.1-.8-.2-1-.1-.2-.4-.3-.8-.3h-.5v-1.5h3.7v1.2zm8.6-1.3v1.6c.5-.7.9-1.2 1.3-1.4.5-.3 1-.5 1.6-.5.6 0 1 .2 1.3.5.3.2.5.7.7 1.5.5-.7 1-1.2 1.3-1.4.5-.3 1-.5 1.5-.5.8 0 1.4.3 1.8.9.2.3.4.7.4 1.1.1.5.1 1 .1 1.6v3.7c0 .5.1.8.2 1 .1.2.4.3.8.3h.5v1.5h-4.8V82h.4c.3 0 .5-.1.6-.3.1-.1.1-.4.1-1V77c0-.7-.1-1.1-.2-1.4-.2-.4-.4-.5-.8-.5-.5 0-1 .2-1.3.7-.4.5-.6 1.2-.6 2v2.9c0 .5.1.8.2 1 .1.1.1.1.3.2.1.1.3.1.4.1h.3v1.5h-4.4V82h.4c.3 0 .5-.1.6-.3.1-.1.1-.4.1-1V77c0-.7-.1-1.1-.2-1.4-.2-.3-.4-.5-.8-.5-.5 0-1 .2-1.3.7-.4.5-.6 1.2-.6 1.9v2.9c0 .5.1.8.2 1 .1.2.4.3.8.3h.2v1.5h-4.9v-1.5h.5c.4 0 .7-.1.8-.3.1-.1.2-.5.2-1v-4.2c0-.5-.1-.8-.2-1-.1-.2-.4-.3-.8-.3h-.5v-1.5h3.8zm17.6 8.6c-.6.6-1 1-1.5 1.2-.4.2-.9.3-1.4.3-.7 0-1.2-.2-1.7-.5-.3-.2-.5-.6-.7-1-.2-.4-.2-.8-.2-1.3 0-.9.3-1.6.9-2.1.5-.4 1.3-.7 2.5-1 .8-.2 1.3-.4 1.5-.7.3-.3.4-.7.4-1.1 0-.6-.2-1-.6-1.3-.3-.2-.7-.3-1.1-.3-.3 0-.5 0-.8.1-.2.1-.4.2-.6.5.3 0 .6.2.7.4.2.2.3.5.3.8 0 .4-.1.7-.4.9-.3.3-.6.4-1 .4-.3 0-.6-.1-.9-.3-.3-.3-.5-.7-.5-1.2 0-.3.1-.6.2-.9.1-.3.3-.6.5-.8.7-.6 1.6-.9 2.9-.9 1.2 0 2.1.3 2.8.9.3.3.5.7.6 1.2 0 .3.1.8.1 1.5v4c0 .6.2 1 .6 1 .2 0 .4-.1.5-.3.1-.1.1-.4.1-.7v-1.1h.9v1c0 .8-.1 1.3-.2 1.7-.3.9-.9 1.3-1.9 1.3-.6 0-1-.1-1.3-.4-.3-.4-.5-.7-.7-1.3zm-.2-3.8c-.6.3-.9.5-1.1.6-.5.2-.8.4-1 .5-.2.1-.3.2-.4.4-.2.3-.3.6-.3.9 0 .3.1.6.3.8.2.2.4.3.8.3s.8-.1 1.2-.4c.4-.3.6-.8.6-1.6v-1.5zm5 5v-1.7l4.8-6.5h-2.1c-.2 0-.3.1-.4.1-.3.2-.5.6-.6 1.2 0 .2 0 .6-.1 1.3h-1.3v-4.2h7.3v1.7l-4.8 6.5h1.5c.6 0 1-.1 1.2-.2s.5-.4.6-.8c.1-.4.2-1.1.2-1.9h1.3v4.5h-7.6zm12.8-9.8v7c0 .5.1.8.2 1 .1.2.4.3.8.3h.6v1.5h-5.3v-1.5h.5c.4 0 .7-.1.8-.3.1-.1.2-.4.2-1v-4.2c0-.5-.1-.9-.2-1-.1-.2-.4-.3-.8-.3h-.5v-1.5h3.7zm-1.3-4.1c.3 0 .6.2.8.5.2.3.4.7.4 1.1 0 .4-.1.8-.4 1.1-.2.3-.5.5-.9.5-.3 0-.6-.2-.9-.5-.2-.3-.4-.7-.4-1.1 0-.5.1-.8.4-1.1.4-.3.7-.5 1-.5zm8.3 3.8c1.3 0 2.3.4 3.2 1.3.9 1 1.4 2.3 1.4 3.9s-.5 2.9-1.4 3.9c-.8.9-1.9 1.3-3.2 1.3-1.3 0-2.4-.4-3.2-1.3-.9-1-1.4-2.3-1.4-3.9 0-1.7.5-3 1.4-3.9.8-.9 1.9-1.3 3.2-1.3zm-.1 1.6c-1.4 0-2.1 1.2-2.1 3.6 0 2.4.7 3.6 2.2 3.6 1.4 0 2.1-1.2 2.1-3.6 0-1.3-.2-2.2-.6-2.8-.3-.5-.9-.8-1.6-.8zm9.3-1.3v1.7c.5-.8 1-1.3 1.3-1.6.4-.3.9-.5 1.5-.5.8 0 1.5.3 1.9.9.2.3.4.7.5 1.1.1.5.1 1 .1 1.6v3.7c0 .5.1.8.2 1 .1.2.4.3.9.3h.4v1.5h-5v-1.5h.3c.4 0 .7-.1.8-.3.1-.1.1-.5.2-1V77c0-.5 0-.8-.1-1-.2-.6-.6-.9-1.2-.9s-1 .2-1.4.7c-.4.5-.6 1.2-.6 2v2.9c0 .5.1.8.2 1 .1.2.4.3.8.3h.3v1.5h-5V82h.5c.4 0 .7-.1.8-.3.1-.1.2-.5.2-1v-4.2c0-.5-.1-.8-.2-1-.1-.2-.4-.3-.8-.3h-.5v-1.5h3.9zm14 6.4h1.7c-.1.5-.1 1-.3 1.3-.1.3-.3.6-.5.9-.7 1-1.8 1.5-3.2 1.5-1.2 0-2.2-.4-3-1.2-.9-.9-1.3-2.2-1.3-3.9 0-.8.1-1.6.3-2.3.2-.7.6-1.3 1-1.8.8-.9 1.8-1.3 2.9-1.3.6 0 1.2.1 1.8.4.5.3 1 .6 1.3 1.1.5.6.8 1.4.9 2.4.1.4.1.9.1 1.7h-5.6c0 .7.1 1.3.2 1.6.3 1 .9 1.5 1.7 1.5.6 0 1.1-.2 1.4-.6.3-.2.5-.6.6-1.3zm-3.7-2.7h3c0-.8-.1-1.3-.3-1.7-.3-.5-.7-.7-1.2-.7s-.9.2-1.2.7c-.2.3-.3.9-.3 1.7zm16.9 2.7h1.7c-.1.5-.1 1-.3 1.3-.1.3-.3.6-.5.9-.7 1-1.8 1.5-3.2 1.5-1.2 0-2.2-.4-3-1.2-.9-.9-1.3-2.2-1.3-3.9 0-.8.1-1.6.3-2.3.2-.7.6-1.3 1-1.8.8-.9 1.8-1.3 2.9-1.3.6 0 1.2.1 1.8.4.5.3 1 .6 1.3 1.1.5.6.8 1.4.9 2.4.1.4.1.9.1 1.7h-5.6c0 .7.1 1.3.2 1.6.3 1 .9 1.5 1.7 1.5.6 0 1.1-.2 1.4-.6.3-.2.5-.6.6-1.3zm-3.8-2.7h3c0-.8-.1-1.3-.3-1.7-.3-.5-.7-.7-1.2-.7s-.9.2-1.2.7c-.1.3-.2.9-.3 1.7zm12.6-2.1v-2.9c0-.5-.1-.8-.2-1-.1-.2-.4-.3-.9-.3h-.3v-1.5h3.6v11.1c0 .5.1.8.2 1 .1.2.4.3.9.3h.6v1.5h-4v-1.6c-.3.6-.6 1.1-.9 1.3-.5.4-1.1.6-1.7.6-1.1 0-1.9-.5-2.4-1.4-.6-.9-.9-2.2-.9-3.9 0-1.6.3-2.8.9-3.8.6-.9 1.4-1.4 2.6-1.4.7 0 1.3.2 1.8.6.1.4.4.8.7 1.4zm-1.9 0c-.6 0-1 .3-1.3.8-.3.6-.4 1.4-.4 2.5 0 1.2.1 2 .4 2.6.3.6.7.8 1.3.8.6 0 1-.3 1.3-.8.2-.3.3-.7.4-1 .1-.5.1-1.1.1-1.7 0-.9-.1-1.6-.2-2-.2-.7-.8-1.2-1.6-1.2zm9.8-1.6v6.5c0 .5 0 .8.1 1 .2.6.6.9 1.2.9s1.1-.2 1.4-.7c.4-.5.6-1.2.6-1.9v-2.9c0-.5 0-.8-.1-1-.1-.2-.3-.3-.7-.3h-.4v-1.5h3.5v7c0 .5.1.8.2 1 .1.2.4.3.8.3h.6v1.5h-4v-1.6c-.5.7-.9 1.2-1.3 1.4-.5.3-1 .5-1.6.5-.8 0-1.5-.3-2-.8-.2-.3-.4-.7-.5-1.1-.1-.5-.1-1-.1-1.6v-3.7c0-.5 0-.8-.1-1-.1-.2-.4-.3-.7-.3h-.3v-1.5h3.4zm15.6 6.1c0 .8-.1 1.3-.2 1.7-.2.7-.6 1.3-1.1 1.7-.6.4-1.3.6-2.1.6-1.2 0-2.1-.4-2.9-1.2-.9-.9-1.3-2.2-1.3-3.9 0-1.7.5-3.1 1.4-4 .9-.9 1.9-1.3 3.1-1.3.6 0 1.1.1 1.6.3.5.2.9.5 1.2.9.4.6.7 1.3.7 2 0 .6-.1 1.1-.4 1.4-.3.4-.7.5-1.1.5-.4 0-.8-.2-1-.5-.2-.3-.3-.6-.3-1.1 0-.4.1-.7.3-1 .2-.2.4-.4.8-.5-.2-.2-.4-.3-.5-.4-.3-.2-.6-.2-1-.2-1.4 0-2.1 1.2-2.1 3.5 0 1.2.2 2.2.5 2.8.3.5.7.8 1.4.8s1.2-.3 1.5-.9c.2-.3.3-.8.4-1.4h1.1zm6.6 2.5c-.6.6-1 1-1.5 1.2-.4.2-.9.3-1.4.3-.7 0-1.2-.2-1.7-.5-.3-.2-.5-.6-.7-1-.2-.4-.2-.8-.2-1.3 0-.9.3-1.6.9-2.1.5-.4 1.3-.7 2.5-1 .8-.2 1.3-.4 1.5-.7.3-.3.4-.7.4-1.1 0-.6-.2-1-.6-1.3-.3-.2-.7-.3-1.1-.3-.3 0-.5 0-.8.1-.2.1-.4.2-.6.5.3 0 .6.2.7.4.2.2.3.5.3.8 0 .4-.1.7-.4.9-.3.3-.6.4-1 .4-.3 0-.6-.1-.9-.3-.3-.3-.5-.7-.5-1.2 0-.3.1-.6.2-.9.1-.3.3-.6.5-.8.7-.6 1.6-.9 2.9-.9 1.2 0 2.1.3 2.8.9.3.3.5.7.6 1.2 0 .3.1.8.1 1.5v4c0 .6.2 1 .6 1 .2 0 .4-.1.5-.3.1-.1.1-.4.1-.7v-1.1h.9v1c0 .8-.1 1.3-.2 1.7-.3.9-.9 1.3-1.9 1.3-.6 0-1-.1-1.3-.4-.3-.4-.5-.7-.7-1.3zm-.2-3.8c-.6.3-.9.5-1.1.6-.5.2-.8.4-1 .5-.2.1-.3.2-.4.4-.2.3-.3.6-.3.9 0 .3.1.6.3.8.2.2.4.3.8.3s.8-.1 1.2-.4c.4-.3.6-.8.6-1.6v-1.5zm9.9.3h1.1v1.4c0 .8-.1 1.5-.2 1.8-.3 1.2-1.1 1.7-2.3 1.7-1 0-1.6-.4-2.1-1.2-.2-.4-.3-.8-.3-1.2v-6h-1.4v-1.5c.5-.2.9-.3 1.1-.5.4-.3.7-.8.9-1.4.1-.4.2-1 .4-2h1.4v3.8h2.1v1.6h-2.3v5.1c0 .6 0 .9.1 1.1.1.2.3.3.6.3.4 0 .6-.2.7-.7.1-.4.1-.9.1-1.5v-.8zm6.2-5.1v7c0 .5.1.8.2 1 .1.2.4.3.8.3h.6v1.5h-5.3v-1.5h.5c.4 0 .7-.1.8-.3.1-.1.2-.4.2-1v-4.2c0-.5-.1-.9-.2-1-.1-.2-.4-.3-.8-.3h-.5v-1.5h3.7zm-1.3-4.1c.3 0 .6.2.8.5.2.3.4.7.4 1.1 0 .4-.1.8-.4 1.1-.2.3-.5.5-.9.5-.3 0-.6-.2-.9-.5-.2-.3-.4-.7-.4-1.1 0-.5.1-.8.4-1.1.4-.3.7-.5 1-.5zm8.4 11.6l1.3-4.8c.1-.4.2-.7.2-.8 0-.3-.2-.4-.7-.4h-.4v-1.5h3.9v1.5c-.4 0-.7 0-.8.1-.1.1-.3.3-.4.6 0 .1-.1.3-.2.7l-2 6.8h-2.7l-1.9-6.8c-.2-.6-.3-1-.5-1.1-.2-.1-.5-.2-.9-.3v-1.5h4.8v1.5h-.2c-.2 0-.4 0-.5.1-.2.1-.3.2-.3.4s0 .4.1.6l1.2 4.9zm10.2 1.1c-.6.6-1 1-1.5 1.2-.4.2-.9.3-1.4.3-.7 0-1.2-.2-1.7-.5-.3-.2-.5-.6-.7-1-.2-.4-.2-.8-.2-1.3 0-.9.3-1.6.9-2.1.5-.4 1.3-.7 2.5-1 .8-.2 1.3-.4 1.5-.7.3-.3.4-.7.4-1.1 0-.6-.2-1-.6-1.3-.3-.2-.7-.3-1.1-.3-.3 0-.5 0-.8.1-.2.1-.4.2-.6.5.3 0 .6.2.7.4.2.2.3.5.3.8 0 .4-.1.7-.4.9-.3.3-.6.4-1 .4-.3 0-.6-.1-.9-.3-.3-.3-.5-.7-.5-1.2 0-.3.1-.6.2-.9.1-.3.3-.6.5-.8.7-.6 1.6-.9 2.9-.9 1.2 0 2.1.3 2.8.9.3.3.5.7.6 1.2 0 .3.1.8.1 1.5v4c0 .6.2 1 .6 1 .2 0 .4-.1.5-.3.1-.1.1-.4.1-.7v-1.1h.9v1c0 .8-.1 1.3-.2 1.7-.3.9-.9 1.3-1.9 1.3-.6 0-1-.1-1.3-.4-.3-.4-.5-.7-.7-1.3zm-.2-3.8c-.6.3-.9.5-1.1.6-.5.2-.8.4-1 .5-.2.1-.3.2-.4.4-.2.3-.3.6-.3.9 0 .3.1.6.3.8.2.2.4.3.8.3s.8-.1 1.2-.4c.4-.3.6-.8.6-1.6v-1.5z"/><path id="_x2E_com" class="st1" d="M373.1 53.4c.6 0 1.1.3 1.5.9.4.6.7 1.3.7 2.2 0 .9-.2 1.6-.7 2.2-.4.6-1 .9-1.6.9-.6 0-1.1-.3-1.6-.9-.4-.6-.7-1.3-.7-2.1 0-.9.2-1.6.7-2.2.5-.7 1-1 1.7-1zm17.8-1.5c0 1.4-.1 2.5-.3 3.2-.3 1.4-1 2.5-1.9 3.2-1 .8-2.1 1.2-3.6 1.2-1.9 0-3.6-.8-4.8-2.3-1.4-1.7-2.2-4.2-2.2-7.3 0-3.2.8-5.7 2.3-7.5 1.4-1.7 3.1-2.5 5.1-2.5.9 0 1.8.2 2.6.6.8.4 1.5 1 1.9 1.7.7 1.1 1.1 2.4 1.1 3.8 0 1.1-.2 2-.7 2.7-.5.7-1.1 1-1.8 1s-1.3-.3-1.7-.9c-.4-.5-.6-1.2-.6-2s.1-1.4.4-1.8c.3-.4.7-.8 1.3-.9-.4-.3-.7-.6-.9-.7-.5-.3-1-.5-1.6-.5-2.3 0-3.5 2.2-3.5 6.5 0 2.3.3 4.1.8 5.2.5 1 1.2 1.5 2.3 1.5 1.1 0 2-.5 2.5-1.6.3-.5.5-1.4.6-2.7h2.7zm9.9-12c2.1 0 3.9.8 5.3 2.5 1.5 1.8 2.3 4.2 2.3 7.3 0 3-.8 5.5-2.3 7.3-1.4 1.6-3.2 2.5-5.3 2.5-2.2 0-4-.8-5.4-2.5-1.5-1.8-2.3-4.3-2.3-7.3 0-3.1.8-5.6 2.3-7.3 1.3-1.6 3.1-2.5 5.4-2.5zm-.2 3c-2.3 0-3.5 2.3-3.5 6.8s1.2 6.8 3.6 6.8c2.4 0 3.6-2.2 3.6-6.7 0-2.4-.3-4.1-.9-5.3-.7-1-1.6-1.6-2.8-1.6zm15.3-2.3v3c.8-1.4 1.6-2.3 2.1-2.7.8-.6 1.7-.9 2.6-.9.9 0 1.7.3 2.2.9.4.5.8 1.4 1.2 2.8.9-1.4 1.6-2.3 2.2-2.7.8-.6 1.6-.9 2.5-.9 1.3 0 2.3.5 3 1.6.4.6.6 1.3.7 2.1.1.9.2 1.9.2 3.1v6.9c0 1 .1 1.6.3 1.8.2.3.6.5 1.4.5h.8V59h-7.9v-3h.6c.5 0 .9-.2 1-.5.1-.2.2-.8.2-1.8v-6.9c0-1.3-.1-2.1-.3-2.6-.3-.7-.7-1-1.3-1-.9 0-1.7.4-2.2 1.3-.6 1-.9 2.2-.9 3.7v5.4c0 1 .1 1.6.3 1.8.1.1.2.2.5.3.2.1.5.1.7.1h.4v2.9h-7.4V56h.6c.5 0 .9-.2 1-.5.1-.2.2-.8.2-1.8v-6.9c0-1.3-.1-2.1-.3-2.6-.3-.6-.7-1-1.3-1-.9 0-1.7.4-2.2 1.3-.6 1-.9 2.2-.9 3.6v5.4c0 1 .1 1.6.3 1.8.2.3.6.5 1.3.5h.3v2.9h-8.1V56h.9c.7 0 1.2-.2 1.3-.5.2-.2.3-.8.3-1.8v-7.9c0-1-.1-1.6-.3-1.8-.2-.3-.6-.5-1.3-.5h-.9v-2.9h6.2z"/><path class="st2" d="M17.3 10c-2 .1-3.4.5-4.2 1.2-1.3 1.2-2.3 3.4-2.8 6.5-.2 1.5-.4 4.2-.5 8h-4V3.2h29.6v22.6h-4c-.1-3.8-.2-6.5-.5-8-.5-3.1-1.4-5.2-2.8-6.5-.8-.7-2.2-1.1-4.2-1.2v37.7c0 2.2.2 3.6.5 4.3.2.5.6.7 1 .8.4.1.9.1 1.6.1h2.2v6.9H11.9V53h2.2c1.1 0 1.8-.1 2.1-.3.5-.3.8-1 1-2.1.1-.5.1-1.4.1-2.8V10zm49.1 17.6v19.1c0 9.6-4 14.4-12.1 14.4-4 0-6.9-1.5-9-4.4-.9-1.3-1.5-2.6-1.9-4.1-.4-1.4-.5-3.2-.5-5.4V27.6c0-1.6-.2-2.6-.5-3.1-.2-.3-.6-.5-1-.6-.3-.1-.9-.1-1.6-.1h-1.6v-5h16.5v5h-2.2c-1.1 0-1.8.1-2 .2-.5.2-.8.7-1 1.5-.1.3-.1 1-.1 2v18.8c0 2.1.1 3.6.4 4.6.7 2.6 2.5 3.9 5.3 3.9 2.5 0 4.2-.7 5.3-2 .6-.7.9-1.7 1.1-2.9.1-.8.2-1.9.2-3.3v-19c0-1.6-.1-2.7-.4-3.1-.2-.3-.5-.5-.9-.6-.3-.1-.8-.1-1.4-.1h-2v-5h13.5v5H69c-1 0-1.6.1-1.8.2-.5.2-.8.7-.9 1.5.1.5.1 1.2.1 2.1zm17.7-3.8c-1.9 0-3.3.3-4 .9-1.3.9-2.2 2.5-2.7 4.7-.2 1.1-.4 3-.5 5.8H73V18.8h28.8v16.3h-3.9c-.1-2.8-.2-4.7-.5-5.8-.5-2.2-1.4-3.8-2.7-4.7-.8-.5-2.1-.8-4-.9V51c0 1.6.2 2.6.5 3.1.2.3.6.5 1 .6.4.1.9.1 1.6.1H96v5H78.9v-5h2.2c1.1 0 1.7-.1 2-.2.5-.2.8-.7.9-1.5.1-.3.1-1 .1-2V23.8zm30.8 0c-1.9 0-3.3.3-4 .9-1.3.9-2.2 2.5-2.7 4.7-.2 1.1-.4 3-.5 5.8h-3.9V18.8h28.8v16.3h-3.9c-.1-2.8-.2-4.7-.5-5.8-.5-2.2-1.4-3.8-2.7-4.7-.8-.5-2.1-.8-4-.9V51c0 1.6.2 2.6.5 3.1.2.3.6.5 1 .6.4.1.9.1 1.6.1h2.2v5h-17v-5h2.2c1.1 0 1.7-.1 2-.2.5-.2.8-.7.9-1.5.1-.3.1-1 .1-2V23.8zm36.2-6.1c4.6 0 8.5 1.9 11.5 5.6 3.3 4 4.9 9.4 4.9 16s-1.6 12-4.9 16c-3 3.7-7 5.6-11.8 5.6-4.8 0-8.7-1.9-11.7-5.6-3.3-4-4.9-9.4-4.9-16 0-6.7 1.6-12.1 4.9-16.1 1.6-1.9 3.4-3.3 5.3-4.3 2-.8 4.2-1.2 6.7-1.2zm-.3 5.4c-2.8 0-5 1.6-6.7 4.7-1.5 2.7-2.2 6.6-2.2 11.5 0 2.6.2 4.9.5 6.8.4 1.9.9 3.5 1.7 5 1.7 3.1 3.9 4.6 6.8 4.6s5.1-1.5 6.8-4.6c1.5-2.8 2.2-6.6 2.2-11.6 0-5.1-.7-9-2.2-11.7-1.7-3.2-4-4.7-6.9-4.7zm22.9 37h-3.5V43.7h3.9c.5 3 1.2 5.1 1.9 6.4 1 1.8 2.3 3.1 3.9 4.1 1.4.8 2.9 1.2 4.5 1.2 2 0 3.6-.6 4.7-1.8.8-.9 1.2-2 1.2-3.3 0-1.9-.7-3.3-2.1-4.2-.7-.5-2.4-1.1-4.9-1.9-3.3-1-5.6-1.9-7-2.6-1.4-.7-2.5-1.4-3.3-2.2-.8-.8-1.4-1.8-1.9-3-.7-1.7-1.1-3.5-1.1-5.5 0-1.6.2-3.1.6-4.6.4-1.5 1-2.8 1.7-3.8 2.2-3.1 5.3-4.7 9.3-4.7 2 0 3.9.4 5.5 1.3.8.5 1.9 1.3 3.3 2.6l1.1-2.9h3.3v15.3H191c-.4-2.6-.8-4.5-1.4-5.7-.9-1.8-2.2-3.2-4-4.2-1.3-.7-2.7-1-4.2-1-1.7 0-2.9.4-3.9 1.3-.9.9-1.4 2.1-1.4 3.6 0 1.7.7 3.1 2.1 4 .7.5 2.3 1.1 4.9 1.8 2.6.8 4.6 1.5 6 2.1 1.4.6 2.7 1.3 3.7 2.2 1.4 1 2.4 2.6 3.1 4.7.5 1.4.7 2.9.7 4.7 0 1.7-.2 3.3-.7 4.8-.4 1.6-1 2.9-1.8 4-2.2 3.2-5.5 4.7-9.8 4.7-2.6 0-4.9-.7-6.9-2-.7-.5-1.6-1.2-2.7-2.2l-1 3.2zM226.9 44c-.2 3.1-.4 5.4-.8 6.9-.7 2.8-2 5.2-3.8 7.1-1.9 2-4.6 3-8.1 3-4.6 0-8.2-1.8-11.1-5.5-3.2-4.1-4.8-9.5-4.8-16.2 0-6.6 1.6-12 4.8-16.2 1.4-1.8 3-3.2 4.8-4.1 1.8-1 3.7-1.4 5.7-1.4s3.7.5 5.3 1.4c.8.5 1.9 1.4 3.4 2.7l.8-3.4h3.6V35h-3.8c-.3-2.6-.6-4.5-1-5.7-1.4-4.1-3.8-6.2-7.2-6.2-2.9 0-5.1 1.5-6.7 4.6-.7 1.5-1.3 3.1-1.6 5-.3 1.9-.5 4.1-.5 6.7 0 2.6.2 4.8.5 6.7.3 1.9.9 3.5 1.6 5 1.6 3.1 3.8 4.6 6.6 4.6s4.9-1.4 6.3-4.1c.6-1.2 1-2.5 1.3-4 .2-1 .3-2.2.4-3.5h4.3zM258 27.6v19.1c0 9.6-4 14.4-12.1 14.4-4 0-6.9-1.5-9-4.4-.9-1.3-1.5-2.6-1.9-4.1-.4-1.4-.5-3.2-.5-5.4V27.6c0-1.6-.2-2.6-.5-3.1-.2-.3-.6-.5-1-.6-.3-.1-.9-.1-1.6-.1h-1.6v-5h16.5v5h-2.2c-1.1 0-1.8.1-2 .2-.5.2-.8.7-1 1.5-.1.3-.1 1-.1 2v18.8c0 2.1.1 3.6.4 4.6.7 2.6 2.5 3.9 5.3 3.9 2.5 0 4.2-.7 5.3-2 .6-.7.9-1.7 1.1-2.9.1-.8.2-1.9.2-3.3v-19c0-1.6-.1-2.7-.4-3.1-.2-.3-.5-.5-.9-.6-.3-.1-.8-.1-1.4-.1h-2v-5h13.5v5h-1.5c-1 0-1.6.1-1.8.2-.5.2-.8.7-.9 1.5.1.5.1 1.2.1 2.1zm22.7-9.9c4.6 0 8.5 1.9 11.5 5.6 3.3 4 4.9 9.4 4.9 16s-1.6 12-4.9 16c-3 3.7-7 5.6-11.8 5.6-4.8 0-8.7-1.9-11.7-5.6-3.3-4-4.9-9.4-4.9-16 0-6.7 1.6-12.1 4.9-16.1 1.6-1.9 3.4-3.3 5.3-4.3 2-.8 4.2-1.2 6.7-1.2zm-.3 5.4c-2.8 0-5 1.6-6.7 4.7-1.5 2.7-2.2 6.6-2.2 11.5 0 2.6.2 4.9.5 6.8.4 1.9.9 3.5 1.7 5 1.7 3.1 3.9 4.6 6.8 4.6s5.1-1.5 6.8-4.6c1.5-2.8 2.2-6.6 2.2-11.6 0-5.1-.7-9-2.2-11.7-1.7-3.2-4-4.7-6.9-4.7zm29.5 31.7h5.1c2.5 0 4.1-.4 5-1 1.8-1.4 2.7-5.1 2.9-11.1h3.7v17.2h-28.2v-5h1.8c1.1 0 1.8-.1 2-.2.5-.2.8-.7 1-1.5.1-.3.1-1 .1-2V27.6c0-1.6-.2-2.6-.5-3.1-.2-.3-.6-.5-1-.6-.3-.1-.9-.1-1.6-.1h-1.8v-5h16.8v5H313c-1.1 0-1.8.1-2 .2-.5.2-.8.7-1 1.5-.1.3-.1 1-.1 2v27.3zm52.3-1.9v6.9h-16.5v-6.9h1.7c1 0 1.7-.1 2.1-.4.5-.4.7-1 .7-1.9 0-.8-.1-1.8-.3-3l-1.2-5.9h-9.5l-1.2 6.1c-.2 1.2-.3 2.2-.3 3 0 1 .3 1.6.8 1.9.3.2.8.2 1.5.2h2v6.9h-13.9v-6.9h1.5c.9 0 1.6-.4 2.1-1.3.5-.8 1-2.4 1.4-4.8l8.1-43.7h7.9l8.3 44.1c.5 2.5.9 4.1 1.3 4.7.4.6 1.1 1 2.3 1h1.2zm-14.8-18.3L344 16.3l-3.4 18.3h6.8z" id="TuttoscuolA-ombra"/><path id="TuttoscuolA" class="st3" d="M16.3 9c-2 .1-3.4.5-4.2 1.2-1.3 1.2-2.3 3.4-2.8 6.5-.2 1.5-.4 4.2-.5 8h-4V2.2h29.6v22.6h-4c-.1-3.8-.2-6.5-.5-8-.5-3.1-1.4-5.2-2.8-6.5-.8-.7-2.2-1.1-4.2-1.2v37.7c0 2.2.2 3.6.5 4.3.2.5.6.7 1 .8.4.1.9.1 1.6.1h2.2v6.9H11V52h2.2c1.1 0 1.8-.1 2.1-.3.5-.3.8-1 1-2.1.1-.5.1-1.4.1-2.8V9zm49.1 17.7v19.1c0 9.6-4 14.4-12.1 14.4-4 0-6.9-1.5-9-4.4-.9-1.3-1.5-2.6-1.9-4.1-.4-1.4-.5-3.2-.5-5.4V26.7c0-1.6-.2-2.6-.5-3.1-.2-.3-.6-.5-1-.6-.3-.1-.9-.1-1.6-.1h-1.6v-5h16.5v5h-2.2c-1.1 0-1.8.1-2 .2-.5.2-.8.7-1 1.5-.1.3-.1 1-.1 2v18.8c0 2.1.1 3.6.4 4.6.7 2.6 2.5 3.9 5.3 3.9 2.5 0 4.2-.7 5.3-2 .6-.7.9-1.7 1.1-2.9.1-.8.2-1.9.2-3.3v-19c0-1.6-.1-2.7-.4-3.1 0-.4-.3-.6-.7-.6-.3-.1-.8-.1-1.4-.1h-2v-5h13.5v5h-1.5c-1 0-1.6.1-1.8.2-.5.2-.8.7-.9 1.5-.1.4-.1 1.1-.1 2.1zm17.7-3.9c-1.9 0-3.3.3-4 .9-1.3.9-2.2 2.5-2.7 4.7-.2 1.1-.4 3-.5 5.8H72V17.9h28.8v16.3H97c-.1-2.8-.2-4.7-.5-5.8-.5-2.2-1.4-3.8-2.7-4.7-.8-.5-2.1-.8-4-.9V50c0 1.6.2 2.6.5 3.1.2.3.6.5 1 .6.4.1.9.1 1.6.1H95v5H77.9v-5h2.2c1.1 0 1.7-.1 2-.2.5-.2.8-.7.9-1.5.1-.3.1-1 .1-2V22.8zm30.8 0c-1.9 0-3.3.3-4 .9-1.3.9-2.2 2.5-2.7 4.7-.2 1.1-.4 3-.5 5.8h-3.9V17.9h28.8v16.3h-3.9c-.1-2.8-.2-4.7-.5-5.8-.5-2.2-1.4-3.8-2.7-4.7-.8-.5-2.1-.8-4-.9V50c0 1.6.2 2.6.5 3.1.2.3.6.5 1 .6.4.1.9.1 1.6.1h2.2v5h-17v-5h2.2c1.1 0 1.7-.1 2-.2.5-.2.8-.7.9-1.5.1-.3.1-1 .1-2V22.8zm36.3-6.1c4.6 0 8.5 1.9 11.5 5.6 3.3 4 4.9 9.4 4.9 16s-1.6 12-4.9 16c-3 3.7-7 5.6-11.8 5.6-4.8 0-8.7-1.9-11.7-5.6-3.3-4-4.9-9.4-4.9-16 0-6.7 1.6-12.1 4.9-16.1 1.6-1.9 3.4-3.3 5.3-4.3 1.9-.7 4.1-1.2 6.7-1.2zm-.4 5.4c-2.8 0-5 1.6-6.7 4.7-1.5 2.7-2.2 6.6-2.2 11.5 0 2.6.2 4.9.5 6.8.4 1.9.9 3.5 1.7 5 1.7 3.1 3.9 4.6 6.8 4.6s5.1-1.5 6.8-4.6c1.5-2.8 2.2-6.6 2.2-11.6 0-5.1-.7-9-2.2-11.7-1.6-3.2-4-4.7-6.9-4.7zm22.9 37h-3.5V42.7h3.9c.5 3 1.2 5.1 1.9 6.4 1 1.8 2.3 3.1 3.9 4.1 1.4.8 2.9 1.2 4.5 1.2 2 0 3.6-.6 4.7-1.8.8-.9 1.2-2 1.2-3.3 0-1.9-.7-3.3-2.1-4.2-.7-.5-2.4-1.1-4.9-1.9-3.3-1-5.6-1.9-7-2.6-1.4-.7-2.5-1.4-3.3-2.2-.8-.8-1.4-1.8-1.9-3-.7-1.7-1.1-3.5-1.1-5.5 0-1.6.2-3.1.6-4.6.4-1.5 1-2.8 1.7-3.8 2.2-3.1 5.3-4.7 9.3-4.7 2 0 3.9.4 5.5 1.3.8.5 1.9 1.3 3.3 2.6l1.1-2.9h3.3V33H190c-.4-2.6-.8-4.5-1.4-5.7-.9-1.8-2.2-3.2-4-4.2-1.3-.7-2.7-1-4.2-1-1.7 0-2.9.4-3.9 1.3-.9.9-1.4 2.1-1.4 3.6 0 1.7.7 3.1 2.1 4 .7.5 2.3 1.1 4.9 1.8 2.6.8 4.6 1.5 6 2.1 1.4.6 2.7 1.3 3.7 2.2 1.4 1 2.4 2.6 3.1 4.7.5 1.4.7 2.9.7 4.7 0 1.7-.2 3.3-.7 4.8-.4 1.6-1 2.9-1.8 4-2.2 3.2-5.5 4.7-9.8 4.7-2.6 0-4.9-.7-6.9-2-.7-.5-1.6-1.2-2.7-2.2l-1 3.3zM225.9 43c-.2 3.1-.4 5.4-.8 6.9-.7 2.8-2 5.2-3.8 7.1-1.9 2-4.6 3-8.1 3-4.6 0-8.2-1.8-11.1-5.5-3.2-4.1-4.8-9.5-4.8-16.2 0-6.6 1.6-12 4.8-16.2 1.4-1.8 3-3.2 4.8-4.1 1.8-1 3.7-1.4 5.7-1.4s3.7.5 5.3 1.4c.8.5 1.9 1.4 3.4 2.7l.8-3.4h3.6V34h-3.8c-.3-2.6-.6-4.5-1-5.7-1.4-4.1-3.8-6.2-7.2-6.2-2.9 0-5.1 1.5-6.7 4.6-.7 1.5-1.3 3.1-1.6 5-.3 1.9-.5 4.1-.5 6.7 0 2.6.2 4.8.5 6.7.3 1.9.9 3.5 1.6 5 1.6 3.1 3.8 4.6 6.6 4.6s4.9-1.4 6.3-4.1c.6-1.2 1-2.5 1.3-4 .2-1 .3-2.2.4-3.5h4.3zM257 26.7v19.1c0 9.6-4 14.4-12.1 14.4-4 0-6.9-1.5-9-4.4-.9-1.3-1.5-2.6-1.9-4.1-.4-1.4-.5-3.2-.5-5.4V26.7c0-1.6-.2-2.6-.5-3.1-.2-.3-.6-.5-1-.6-.3-.1-.9-.1-1.6-.1h-1.6v-5h16.5v5h-2.2c-1.1 0-1.8.1-2 .2-.5.2-.8.7-1 1.5-.1.3-.1 1-.1 2v18.8c0 2.1.1 3.6.4 4.6.7 2.6 2.5 3.9 5.3 3.9 2.5 0 4.2-.7 5.3-2 .6-.7.9-1.7 1.1-2.9.1-.8.2-1.9.2-3.3v-19c0-1.6-.1-2.7-.4-3.1-.2-.3-.5-.5-.9-.6-.3-.1-.8-.1-1.4-.1h-2v-5h13.5v5h-1.5c-1 0-1.6.1-1.8.2-.5.2-.8.7-.9 1.5.1.4.1 1.1.1 2.1zm22.7-10c4.6 0 8.5 1.9 11.5 5.6 3.3 4 4.9 9.4 4.9 16s-1.6 12-4.9 16c-3 3.7-7 5.6-11.8 5.6-4.8 0-8.7-1.9-11.7-5.6-3.3-4-4.9-9.4-4.9-16 0-6.7 1.6-12.1 4.9-16.1 1.6-1.9 3.4-3.3 5.3-4.3 2-.7 4.2-1.2 6.7-1.2zm-.3 5.4c-2.8 0-5 1.6-6.7 4.7-1.5 2.7-2.2 6.6-2.2 11.5 0 2.6.2 4.9.5 6.8.4 1.9.9 3.5 1.7 5 1.7 3.1 3.9 4.6 6.8 4.6s5.1-1.5 6.8-4.6c1.5-2.8 2.2-6.6 2.2-11.6 0-5.1-.7-9-2.2-11.7-1.7-3.2-4-4.7-6.9-4.7zm29.5 31.7h5.1c2.5 0 4.1-.4 5-1 1.8-1.4 2.7-5.1 2.9-11.1h3.7v17.2h-28.2v-5h1.8c1.1 0 1.8-.1 2-.2.5-.2.8-.7 1-1.5.1-.3.1-1 .1-2V26.7c0-1.6-.2-2.6-.5-3.1-.2-.3-.6-.5-1-.6-.3-.1-.9-.1-1.6-.1h-1.8v-5h16.8v5H312c-1.1 0-1.8.1-2 .2-.5.2-.8.7-1 1.5-.1.3-.1 1-.1 2v27.2zm52.4-1.9v6.9h-16.5v-6.9h1.7c1 0 1.7-.1 2.1-.4.5-.4.7-1 .7-1.9 0-.8-.1-1.8-.3-3l-1.2-5.9h-9.5l-1.2 6.1c-.2 1.2-.3 2.2-.3 3 0 1 .3 1.6.8 1.9.3.2.8.2 1.5.2h2v6.9h-13.9v-6.9h1.5c.9 0 1.6-.4 2.1-1.3.5-.8 1-2.4 1.4-4.8l8.1-43.7h7.9l8.3 44.1c.5 2.5.9 4.1 1.3 4.7.4.6 1.1 1 2.3 1h1.2zm-14.8-18.2L343 15.3l-3.4 18.3h6.9z"/></svg>